<?xml version="1.0" encoding="iso-8859-1"?>
<!-- Uploaded to: SVG Repo, www.svgrepo.com, Generator: SVG Repo Mixer Tools -->
<svg version="1.1" id="Layer_1" xmlns="http://www.w3.org/2000/svg" xmlns:xlink="http://www.w3.org/1999/xlink" 
	 viewBox="0 0 511.988 511.988" xml:space="preserve">
<path style="fill:#656D78;" d="M388.912,466.488L303.726,29.937c-0.625-3.25-2.734-6.016-5.688-7.5L255.384,1.125
	c-3-1.5-6.539-1.5-9.539,0l-42.64,21.312c-2.961,1.484-5.07,4.25-5.703,7.5l-85.287,437.114c-0.609,3.141,0.211,6.375,2.234,8.828
	s5.039,3.875,8.227,3.875h255.876c0.016,0,0.016,0,0.016,0c5.891,0,10.656-4.766,10.656-10.656
	C389.224,468.207,389.115,467.332,388.912,466.488z"/>
<path style="fill:#965353;" d="M306.211,42.639l-2.484-12.702c-0.625-3.25-2.734-6.016-5.688-7.5L255.384,1.125
	c-3-1.5-6.539-1.5-9.539,0l-42.64,21.312c-2.961,1.484-5.07,4.25-5.703,7.5l-2.477,12.702H306.211z"/>
<g>
	<path style="fill:#434A54;" d="M186.643,458.677h-42.64c-5.891,0-10.664,4.765-10.664,10.655v31.984
		c0,5.891,4.773,10.672,10.664,10.672h42.64c5.89,0,10.664-4.781,10.664-10.672v-31.984
		C197.307,463.441,192.534,458.677,186.643,458.677z"/>
	<path style="fill:#434A54;" d="M357.241,458.677h-42.655c-5.891,0-10.656,4.765-10.656,10.655v31.984
		c0,5.891,4.766,10.672,10.656,10.672h42.655c5.875,0,10.655-4.781,10.655-10.672v-31.984
		C367.896,463.441,363.116,458.677,357.241,458.677z"/>
</g>
<rect x="229.285" y="42.639" style="fill:#F4F6F9;" width="42.648" height="277.2"/>
<g>
	<path style="fill:#CCD1D9;" d="M239.954,74.623c5.891,0,10.664-4.765,10.664-10.656s-4.773-10.672-10.664-10.672H229.29v21.328
		H239.954z"/>
	<path style="fill:#CCD1D9;" d="M261.275,74.623c-5.884,0-10.657,4.781-10.657,10.671c0,5.875,4.773,10.656,10.657,10.656h10.663
		V74.623H261.275z"/>
	<path style="fill:#CCD1D9;" d="M239.954,117.278c5.891,0,10.664-4.781,10.664-10.671c0-5.891-4.773-10.656-10.664-10.656H229.29
		v21.328h10.664V117.278z"/>
	<path style="fill:#CCD1D9;" d="M261.275,117.278c-5.884,0-10.657,4.765-10.657,10.656s4.773,10.656,10.657,10.656h10.663v-21.312
		H261.275z"/>
	<path style="fill:#CCD1D9;" d="M239.954,159.918c5.891,0,10.664-4.781,10.664-10.656c0-5.891-4.773-10.672-10.664-10.672H229.29
		v21.328H239.954z"/>
	<path style="fill:#CCD1D9;" d="M261.275,159.918c-5.884,0-10.657,4.765-10.657,10.656s4.773,10.672,10.657,10.672h10.663v-21.328
		H261.275z"/>
	<path style="fill:#CCD1D9;" d="M239.954,202.557c5.891,0,10.664-4.765,10.664-10.656c0-5.89-4.773-10.656-10.664-10.656H229.29
		v21.312L239.954,202.557L239.954,202.557z"/>
	<path style="fill:#CCD1D9;" d="M261.275,202.557c-5.884,0-10.657,4.781-10.657,10.672s4.773,10.656,10.657,10.656h10.663v-21.328
		H261.275z"/>
	<path style="fill:#CCD1D9;" d="M239.954,245.212c5.891,0,10.664-4.781,10.664-10.671c0-5.875-4.773-10.656-10.664-10.656H229.29
		v21.327L239.954,245.212L239.954,245.212z"/>
	<path style="fill:#CCD1D9;" d="M261.275,245.212c-5.884,0-10.657,4.766-10.657,10.656c0,5.891,4.773,10.657,10.657,10.657h10.663
		v-21.313H261.275z"/>
	<path style="fill:#CCD1D9;" d="M239.954,287.852c5.891,0,10.664-4.766,10.664-10.655c0-5.891-4.773-10.672-10.664-10.672H229.29
		v21.327H239.954z"/>
	<path style="fill:#CCD1D9;" d="M261.275,287.852c-5.884,0-10.657,4.781-10.657,10.672c0,5.875,4.773,10.655,10.657,10.655h10.663
		v-21.327H261.275z"/>
</g>
<path style="fill:#F6BB42;" d="M283.602,340.648c-1.438,0-2.875-0.297-4.266-0.891c-5.406-2.359-7.867-8.656-5.5-14.047
	l105.7-241.995c2.359-5.406,8.641-7.859,14.031-5.515c5.406,2.359,7.859,8.656,5.516,14.046L293.367,334.242
	C291.617,338.258,287.711,340.648,283.602,340.648z"/>
<path style="fill:#FFCE54;" d="M350.897,250.181c-0.812-3.172-3.062-5.797-6.062-7.109l-39.077-17.078
	c-3.016-1.312-6.453-1.172-9.344,0.391s-4.891,4.375-5.438,7.609l-7.296,43.344c-0.812,4.827,1.75,9.593,6.233,11.546l19.547,8.531
	c1.375,0.609,2.828,0.891,4.266,0.891c3.219,0,6.375-1.469,8.438-4.141l26.843-34.812
	C351.007,256.744,351.71,253.369,350.897,250.181z"/>
<path style="fill:#965353;" d="M389.021,467.051l-27.046-138.59c-0.969-5.016-5.359-8.625-10.469-8.625H149.722
	c-5.101,0-9.484,3.609-10.468,8.625l-27.039,138.59c-0.609,3.141,0.211,6.375,2.234,8.828s5.039,3.875,8.227,3.875h255.876
	c3.188,0,6.203-1.422,8.234-3.875S389.631,470.191,389.021,467.051z"/>
<g>
	<path style="fill:#7F4545;" d="M124.34,404.896c0.727,0.156,1.469,0.234,2.234,0.234h92.052c5.891,0,10.664-4.781,10.664-10.656
		c0-5.891-4.773-10.672-10.664-10.672h-90.17L124.34,404.896z"/>
	<path style="fill:#7F4545;" d="M372.771,383.803h-26.202c-5.89,0-10.655,4.781-10.655,10.672c0,5.875,4.766,10.656,10.655,10.656
		h28.093c0.766,0,1.5-0.078,2.234-0.234L372.771,383.803z"/>
	<path style="fill:#7F4545;" d="M383.178,437.115h-47.264c-26.766,0-39.906,11.358-46.203,20.89
		c-6.577,9.921-7.077,19.827-7.108,21.749h21.343c0.125-1.344,0.75-6.125,4-10.641c5.094-7.078,14.5-10.671,27.969-10.671h51.42
		L383.178,437.115z"/>
</g>
</svg>